<mxfile host="Electron" agent="Mozilla/5.0 (Windows NT 10.0; Win64; x64) AppleWebKit/537.36 (KHTML, like Gecko) draw.io/25.0.1 Chrome/128.0.6613.186 Electron/32.2.6 Safari/537.36" version="25.0.1">
  <diagram name="第 1 页" id="Rkdjn0ITDKZmEb__73da">
    <mxGraphModel dx="1276" dy="614" grid="1" gridSize="10" guides="1" tooltips="1" connect="1" arrows="1" fold="1" page="1" pageScale="1" pageWidth="827" pageHeight="1169" math="0" shadow="0">
      <root>
        <mxCell id="0" />
        <mxCell id="1" parent="0" />
        <mxCell id="VyCGf-THsZre0-RN0kSX-79" style="edgeStyle=none;rounded=0;orthogonalLoop=1;jettySize=auto;html=1;exitX=0.5;exitY=1;exitDx=0;exitDy=0;entryX=0.5;entryY=0;entryDx=0;entryDy=0;" parent="1" source="VyCGf-THsZre0-RN0kSX-112" target="VyCGf-THsZre0-RN0kSX-124" edge="1">
          <mxGeometry relative="1" as="geometry">
            <mxPoint x="509" y="95" as="sourcePoint" />
            <mxPoint x="340" y="170" as="targetPoint" />
          </mxGeometry>
        </mxCell>
        <mxCell id="VyCGf-THsZre0-RN0kSX-80" style="edgeStyle=none;rounded=0;orthogonalLoop=1;jettySize=auto;html=1;exitX=0.5;exitY=1;exitDx=0;exitDy=0;entryX=0.5;entryY=0;entryDx=0;entryDy=0;" parent="1" source="VyCGf-THsZre0-RN0kSX-116" target="VyCGf-THsZre0-RN0kSX-146" edge="1">
          <mxGeometry relative="1" as="geometry">
            <mxPoint x="539" y="95" as="sourcePoint" />
            <mxPoint x="569" y="170" as="targetPoint" />
          </mxGeometry>
        </mxCell>
        <mxCell id="VyCGf-THsZre0-RN0kSX-108" value="Page1" style="swimlane;whiteSpace=wrap;html=1;" parent="1" vertex="1">
          <mxGeometry x="414" y="10" width="320" height="100" as="geometry" />
        </mxCell>
        <mxCell id="VyCGf-THsZre0-RN0kSX-113" value="" style="group" parent="VyCGf-THsZre0-RN0kSX-108" vertex="1" connectable="0">
          <mxGeometry x="11.5" y="30.83" width="90" height="60" as="geometry" />
        </mxCell>
        <mxCell id="VyCGf-THsZre0-RN0kSX-110" value="10" style="rounded=0;whiteSpace=wrap;html=1;fillColor=#dae8fc;strokeColor=#6c8ebf;" parent="VyCGf-THsZre0-RN0kSX-113" vertex="1">
          <mxGeometry width="90" height="20" as="geometry" />
        </mxCell>
        <mxCell id="VyCGf-THsZre0-RN0kSX-111" value="10, 张三" style="rounded=0;whiteSpace=wrap;html=1;fillColor=#f8cecc;strokeColor=#b85450;" parent="VyCGf-THsZre0-RN0kSX-113" vertex="1">
          <mxGeometry y="20" width="90" height="20" as="geometry" />
        </mxCell>
        <mxCell id="VyCGf-THsZre0-RN0kSX-112" value="Page2" style="rounded=0;whiteSpace=wrap;html=1;fillColor=#d5e8d4;strokeColor=#82b366;" parent="VyCGf-THsZre0-RN0kSX-113" vertex="1">
          <mxGeometry y="40" width="90" height="20" as="geometry" />
        </mxCell>
        <mxCell id="VyCGf-THsZre0-RN0kSX-114" value="20" style="rounded=0;whiteSpace=wrap;html=1;fillColor=#dae8fc;strokeColor=#6c8ebf;" parent="VyCGf-THsZre0-RN0kSX-108" vertex="1">
          <mxGeometry x="220" y="30.83" width="90" height="20" as="geometry" />
        </mxCell>
        <mxCell id="VyCGf-THsZre0-RN0kSX-115" value="20，李四" style="rounded=0;whiteSpace=wrap;html=1;fillColor=#f8cecc;strokeColor=#b85450;" parent="VyCGf-THsZre0-RN0kSX-108" vertex="1">
          <mxGeometry x="220" y="50.83" width="90" height="20" as="geometry" />
        </mxCell>
        <mxCell id="VyCGf-THsZre0-RN0kSX-116" value="Page4" style="rounded=0;whiteSpace=wrap;html=1;fillColor=#d5e8d4;strokeColor=#82b366;" parent="VyCGf-THsZre0-RN0kSX-108" vertex="1">
          <mxGeometry x="220" y="70.83" width="90" height="20" as="geometry" />
        </mxCell>
        <mxCell id="VyCGf-THsZre0-RN0kSX-123" style="edgeStyle=none;rounded=0;orthogonalLoop=1;jettySize=auto;html=1;exitX=1;exitY=0.5;exitDx=0;exitDy=0;entryX=0;entryY=0.5;entryDx=0;entryDy=0;" parent="VyCGf-THsZre0-RN0kSX-108" source="VyCGf-THsZre0-RN0kSX-121" target="VyCGf-THsZre0-RN0kSX-115" edge="1">
          <mxGeometry relative="1" as="geometry" />
        </mxCell>
        <mxCell id="VyCGf-THsZre0-RN0kSX-121" value="&lt;b&gt;······&lt;/b&gt;" style="text;html=1;align=center;verticalAlign=middle;whiteSpace=wrap;rounded=0;" parent="VyCGf-THsZre0-RN0kSX-108" vertex="1">
          <mxGeometry x="138" y="45.33" width="44" height="31" as="geometry" />
        </mxCell>
        <mxCell id="VyCGf-THsZre0-RN0kSX-122" style="edgeStyle=none;rounded=0;orthogonalLoop=1;jettySize=auto;html=1;exitX=1;exitY=0.5;exitDx=0;exitDy=0;entryX=0;entryY=0.5;entryDx=0;entryDy=0;" parent="VyCGf-THsZre0-RN0kSX-108" source="VyCGf-THsZre0-RN0kSX-111" target="VyCGf-THsZre0-RN0kSX-121" edge="1">
          <mxGeometry relative="1" as="geometry" />
        </mxCell>
        <mxCell id="VyCGf-THsZre0-RN0kSX-124" value="Page2" style="swimlane;whiteSpace=wrap;html=1;" parent="1" vertex="1">
          <mxGeometry x="40" y="200" width="320" height="100" as="geometry" />
        </mxCell>
        <mxCell id="VyCGf-THsZre0-RN0kSX-125" value="" style="group" parent="VyCGf-THsZre0-RN0kSX-124" vertex="1" connectable="0">
          <mxGeometry x="11.5" y="30.83" width="90" height="60" as="geometry" />
        </mxCell>
        <mxCell id="VyCGf-THsZre0-RN0kSX-126" value="1" style="rounded=0;whiteSpace=wrap;html=1;fillColor=#dae8fc;strokeColor=#6c8ebf;" parent="VyCGf-THsZre0-RN0kSX-125" vertex="1">
          <mxGeometry width="90" height="20" as="geometry" />
        </mxCell>
        <mxCell id="VyCGf-THsZre0-RN0kSX-127" value="1, aaa" style="rounded=0;whiteSpace=wrap;html=1;fillColor=#f8cecc;strokeColor=#b85450;" parent="VyCGf-THsZre0-RN0kSX-125" vertex="1">
          <mxGeometry y="20" width="90" height="20" as="geometry" />
        </mxCell>
        <mxCell id="VyCGf-THsZre0-RN0kSX-128" value="Page5" style="rounded=0;whiteSpace=wrap;html=1;fillColor=#d5e8d4;strokeColor=#82b366;" parent="VyCGf-THsZre0-RN0kSX-125" vertex="1">
          <mxGeometry y="40" width="90" height="20" as="geometry" />
        </mxCell>
        <mxCell id="VyCGf-THsZre0-RN0kSX-129" value="10" style="rounded=0;whiteSpace=wrap;html=1;fillColor=#dae8fc;strokeColor=#6c8ebf;" parent="VyCGf-THsZre0-RN0kSX-124" vertex="1">
          <mxGeometry x="220" y="30.83" width="90" height="20" as="geometry" />
        </mxCell>
        <mxCell id="VyCGf-THsZre0-RN0kSX-130" value="10，ttttt" style="rounded=0;whiteSpace=wrap;html=1;fillColor=#f8cecc;strokeColor=#b85450;" parent="VyCGf-THsZre0-RN0kSX-124" vertex="1">
          <mxGeometry x="220" y="50.83" width="90" height="20" as="geometry" />
        </mxCell>
        <mxCell id="VyCGf-THsZre0-RN0kSX-131" value="Page7" style="rounded=0;whiteSpace=wrap;html=1;fillColor=#d5e8d4;strokeColor=#82b366;" parent="VyCGf-THsZre0-RN0kSX-124" vertex="1">
          <mxGeometry x="220" y="70.83" width="90" height="20" as="geometry" />
        </mxCell>
        <mxCell id="VyCGf-THsZre0-RN0kSX-132" style="edgeStyle=none;rounded=0;orthogonalLoop=1;jettySize=auto;html=1;exitX=1;exitY=0.5;exitDx=0;exitDy=0;entryX=0;entryY=0.5;entryDx=0;entryDy=0;" parent="VyCGf-THsZre0-RN0kSX-124" source="VyCGf-THsZre0-RN0kSX-133" target="VyCGf-THsZre0-RN0kSX-130" edge="1">
          <mxGeometry relative="1" as="geometry" />
        </mxCell>
        <mxCell id="VyCGf-THsZre0-RN0kSX-133" value="&lt;b&gt;······&lt;/b&gt;" style="text;html=1;align=center;verticalAlign=middle;whiteSpace=wrap;rounded=0;" parent="VyCGf-THsZre0-RN0kSX-124" vertex="1">
          <mxGeometry x="138" y="45.33" width="44" height="31" as="geometry" />
        </mxCell>
        <mxCell id="VyCGf-THsZre0-RN0kSX-134" style="edgeStyle=none;rounded=0;orthogonalLoop=1;jettySize=auto;html=1;exitX=1;exitY=0.5;exitDx=0;exitDy=0;entryX=0;entryY=0.5;entryDx=0;entryDy=0;" parent="VyCGf-THsZre0-RN0kSX-124" source="VyCGf-THsZre0-RN0kSX-127" target="VyCGf-THsZre0-RN0kSX-133" edge="1">
          <mxGeometry relative="1" as="geometry" />
        </mxCell>
        <mxCell id="VyCGf-THsZre0-RN0kSX-135" value="Page3" style="swimlane;whiteSpace=wrap;html=1;" parent="1" vertex="1">
          <mxGeometry x="414" y="200" width="320" height="100" as="geometry" />
        </mxCell>
        <mxCell id="VyCGf-THsZre0-RN0kSX-136" value="" style="group" parent="VyCGf-THsZre0-RN0kSX-135" vertex="1" connectable="0">
          <mxGeometry x="11.5" y="30.83" width="90" height="60" as="geometry" />
        </mxCell>
        <mxCell id="VyCGf-THsZre0-RN0kSX-137" value="11" style="rounded=0;whiteSpace=wrap;html=1;fillColor=#dae8fc;strokeColor=#6c8ebf;" parent="VyCGf-THsZre0-RN0kSX-136" vertex="1">
          <mxGeometry width="90" height="20" as="geometry" />
        </mxCell>
        <mxCell id="VyCGf-THsZre0-RN0kSX-138" value="10, 张三" style="rounded=0;whiteSpace=wrap;html=1;fillColor=#f8cecc;strokeColor=#b85450;" parent="VyCGf-THsZre0-RN0kSX-136" vertex="1">
          <mxGeometry y="20" width="90" height="20" as="geometry" />
        </mxCell>
        <mxCell id="VyCGf-THsZre0-RN0kSX-139" value="Page8" style="rounded=0;whiteSpace=wrap;html=1;fillColor=#d5e8d4;strokeColor=#82b366;" parent="VyCGf-THsZre0-RN0kSX-136" vertex="1">
          <mxGeometry y="40" width="90" height="20" as="geometry" />
        </mxCell>
        <mxCell id="VyCGf-THsZre0-RN0kSX-140" value="15" style="rounded=0;whiteSpace=wrap;html=1;fillColor=#dae8fc;strokeColor=#6c8ebf;" parent="VyCGf-THsZre0-RN0kSX-135" vertex="1">
          <mxGeometry x="220" y="30.83" width="90" height="20" as="geometry" />
        </mxCell>
        <mxCell id="VyCGf-THsZre0-RN0kSX-141" value="20，李四" style="rounded=0;whiteSpace=wrap;html=1;fillColor=#f8cecc;strokeColor=#b85450;" parent="VyCGf-THsZre0-RN0kSX-135" vertex="1">
          <mxGeometry x="220" y="50.83" width="90" height="20" as="geometry" />
        </mxCell>
        <mxCell id="VyCGf-THsZre0-RN0kSX-142" value="Page8" style="rounded=0;whiteSpace=wrap;html=1;fillColor=#d5e8d4;strokeColor=#82b366;" parent="VyCGf-THsZre0-RN0kSX-135" vertex="1">
          <mxGeometry x="220" y="70.83" width="90" height="20" as="geometry" />
        </mxCell>
        <mxCell id="VyCGf-THsZre0-RN0kSX-143" style="edgeStyle=none;rounded=0;orthogonalLoop=1;jettySize=auto;html=1;exitX=1;exitY=0.5;exitDx=0;exitDy=0;entryX=0;entryY=0.5;entryDx=0;entryDy=0;" parent="VyCGf-THsZre0-RN0kSX-135" source="VyCGf-THsZre0-RN0kSX-144" target="VyCGf-THsZre0-RN0kSX-141" edge="1">
          <mxGeometry relative="1" as="geometry" />
        </mxCell>
        <mxCell id="VyCGf-THsZre0-RN0kSX-144" value="&lt;b&gt;······&lt;/b&gt;" style="text;html=1;align=center;verticalAlign=middle;whiteSpace=wrap;rounded=0;" parent="VyCGf-THsZre0-RN0kSX-135" vertex="1">
          <mxGeometry x="138" y="45.33" width="44" height="31" as="geometry" />
        </mxCell>
        <mxCell id="VyCGf-THsZre0-RN0kSX-145" style="edgeStyle=none;rounded=0;orthogonalLoop=1;jettySize=auto;html=1;exitX=1;exitY=0.5;exitDx=0;exitDy=0;entryX=0;entryY=0.5;entryDx=0;entryDy=0;" parent="VyCGf-THsZre0-RN0kSX-135" source="VyCGf-THsZre0-RN0kSX-138" target="VyCGf-THsZre0-RN0kSX-144" edge="1">
          <mxGeometry relative="1" as="geometry" />
        </mxCell>
        <mxCell id="VyCGf-THsZre0-RN0kSX-146" value="Page4" style="swimlane;whiteSpace=wrap;html=1;" parent="1" vertex="1">
          <mxGeometry x="790" y="200" width="240" height="100" as="geometry" />
        </mxCell>
        <mxCell id="VyCGf-THsZre0-RN0kSX-147" value="" style="group" parent="VyCGf-THsZre0-RN0kSX-146" vertex="1" connectable="0">
          <mxGeometry x="11.5" y="30.83" width="90" height="60" as="geometry" />
        </mxCell>
        <mxCell id="VyCGf-THsZre0-RN0kSX-148" value="16" style="rounded=0;whiteSpace=wrap;html=1;fillColor=#dae8fc;strokeColor=#6c8ebf;" parent="VyCGf-THsZre0-RN0kSX-147" vertex="1">
          <mxGeometry width="90" height="20" as="geometry" />
        </mxCell>
        <mxCell id="VyCGf-THsZre0-RN0kSX-149" value="10, 张三" style="rounded=0;whiteSpace=wrap;html=1;fillColor=#f8cecc;strokeColor=#b85450;" parent="VyCGf-THsZre0-RN0kSX-147" vertex="1">
          <mxGeometry y="20" width="90" height="20" as="geometry" />
        </mxCell>
        <mxCell id="VyCGf-THsZre0-RN0kSX-150" value="Page9" style="rounded=0;whiteSpace=wrap;html=1;fillColor=#d5e8d4;strokeColor=#82b366;" parent="VyCGf-THsZre0-RN0kSX-147" vertex="1">
          <mxGeometry y="40" width="90" height="20" as="geometry" />
        </mxCell>
        <mxCell id="VyCGf-THsZre0-RN0kSX-151" value="20" style="rounded=0;whiteSpace=wrap;html=1;fillColor=#dae8fc;strokeColor=#6c8ebf;" parent="VyCGf-THsZre0-RN0kSX-146" vertex="1">
          <mxGeometry x="140" y="30.83" width="90" height="20" as="geometry" />
        </mxCell>
        <mxCell id="VyCGf-THsZre0-RN0kSX-152" value="20，李四" style="rounded=0;whiteSpace=wrap;html=1;fillColor=#f8cecc;strokeColor=#b85450;" parent="VyCGf-THsZre0-RN0kSX-146" vertex="1">
          <mxGeometry x="140" y="50.83" width="90" height="20" as="geometry" />
        </mxCell>
        <mxCell id="VyCGf-THsZre0-RN0kSX-153" value="Page9" style="rounded=0;whiteSpace=wrap;html=1;fillColor=#d5e8d4;strokeColor=#82b366;" parent="VyCGf-THsZre0-RN0kSX-146" vertex="1">
          <mxGeometry x="140" y="70.83" width="90" height="20" as="geometry" />
        </mxCell>
        <mxCell id="VyCGf-THsZre0-RN0kSX-156" style="edgeStyle=none;rounded=0;orthogonalLoop=1;jettySize=auto;html=1;exitX=1;exitY=0.5;exitDx=0;exitDy=0;entryX=0;entryY=0.5;entryDx=0;entryDy=0;" parent="VyCGf-THsZre0-RN0kSX-146" source="VyCGf-THsZre0-RN0kSX-149" edge="1">
          <mxGeometry relative="1" as="geometry">
            <mxPoint x="138" y="60.82999999999993" as="targetPoint" />
          </mxGeometry>
        </mxCell>
        <mxCell id="VyCGf-THsZre0-RN0kSX-157" style="edgeStyle=none;rounded=0;orthogonalLoop=1;jettySize=auto;html=1;exitX=0.5;exitY=1;exitDx=0;exitDy=0;entryX=0.5;entryY=0;entryDx=0;entryDy=0;" parent="1" source="VyCGf-THsZre0-RN0kSX-121" target="VyCGf-THsZre0-RN0kSX-135" edge="1">
          <mxGeometry relative="1" as="geometry" />
        </mxCell>
        <mxCell id="VyCGf-THsZre0-RN0kSX-161" value="Page8" style="swimlane;whiteSpace=wrap;html=1;" parent="1" vertex="1">
          <mxGeometry x="415" y="380" width="320" height="80" as="geometry" />
        </mxCell>
        <mxCell id="VyCGf-THsZre0-RN0kSX-166" value="20" style="rounded=0;whiteSpace=wrap;html=1;fillColor=#dae8fc;strokeColor=#6c8ebf;" parent="VyCGf-THsZre0-RN0kSX-161" vertex="1">
          <mxGeometry x="220" y="30.83" width="90" height="20" as="geometry" />
        </mxCell>
        <mxCell id="VyCGf-THsZre0-RN0kSX-167" value="20，李四" style="rounded=0;whiteSpace=wrap;html=1;fillColor=#f8cecc;strokeColor=#b85450;" parent="VyCGf-THsZre0-RN0kSX-161" vertex="1">
          <mxGeometry x="220" y="50.83" width="90" height="20" as="geometry" />
        </mxCell>
        <mxCell id="VyCGf-THsZre0-RN0kSX-169" style="edgeStyle=none;rounded=0;orthogonalLoop=1;jettySize=auto;html=1;exitX=1;exitY=0.5;exitDx=0;exitDy=0;entryX=0;entryY=0.5;entryDx=0;entryDy=0;" parent="VyCGf-THsZre0-RN0kSX-161" source="VyCGf-THsZre0-RN0kSX-170" target="VyCGf-THsZre0-RN0kSX-167" edge="1">
          <mxGeometry relative="1" as="geometry" />
        </mxCell>
        <mxCell id="VyCGf-THsZre0-RN0kSX-170" value="&lt;b&gt;······&lt;/b&gt;" style="text;html=1;align=center;verticalAlign=middle;whiteSpace=wrap;rounded=0;" parent="VyCGf-THsZre0-RN0kSX-161" vertex="1">
          <mxGeometry x="138" y="45.33" width="44" height="31" as="geometry" />
        </mxCell>
        <mxCell id="VyCGf-THsZre0-RN0kSX-171" style="edgeStyle=none;rounded=0;orthogonalLoop=1;jettySize=auto;html=1;exitX=1;exitY=0.5;exitDx=0;exitDy=0;entryX=0;entryY=0.5;entryDx=0;entryDy=0;" parent="VyCGf-THsZre0-RN0kSX-161" source="VyCGf-THsZre0-RN0kSX-164" target="VyCGf-THsZre0-RN0kSX-170" edge="1">
          <mxGeometry relative="1" as="geometry" />
        </mxCell>
        <mxCell id="VyCGf-THsZre0-RN0kSX-163" value="10" style="rounded=0;whiteSpace=wrap;html=1;fillColor=#dae8fc;strokeColor=#6c8ebf;" parent="VyCGf-THsZre0-RN0kSX-161" vertex="1">
          <mxGeometry x="11.5" y="30.829999999999984" width="90" height="20" as="geometry" />
        </mxCell>
        <mxCell id="VyCGf-THsZre0-RN0kSX-164" value="10, 张三" style="rounded=0;whiteSpace=wrap;html=1;fillColor=#f8cecc;strokeColor=#b85450;" parent="VyCGf-THsZre0-RN0kSX-161" vertex="1">
          <mxGeometry x="11.5" y="50.829999999999984" width="90" height="20" as="geometry" />
        </mxCell>
        <mxCell id="VyCGf-THsZre0-RN0kSX-173" style="edgeStyle=none;rounded=0;orthogonalLoop=1;jettySize=auto;html=1;exitX=0.5;exitY=1;exitDx=0;exitDy=0;entryX=0.5;entryY=0;entryDx=0;entryDy=0;" parent="1" source="VyCGf-THsZre0-RN0kSX-144" target="VyCGf-THsZre0-RN0kSX-161" edge="1">
          <mxGeometry relative="1" as="geometry" />
        </mxCell>
        <mxCell id="VyCGf-THsZre0-RN0kSX-174" value="Page5" style="swimlane;whiteSpace=wrap;html=1;" parent="1" vertex="1">
          <mxGeometry x="29" y="380" width="80" height="80" as="geometry" />
        </mxCell>
        <mxCell id="VyCGf-THsZre0-RN0kSX-185" value="Page6" style="swimlane;whiteSpace=wrap;html=1;" parent="1" vertex="1">
          <mxGeometry x="160" y="380" width="80" height="80" as="geometry" />
        </mxCell>
        <mxCell id="VyCGf-THsZre0-RN0kSX-186" value="Page7" style="swimlane;whiteSpace=wrap;html=1;" parent="1" vertex="1">
          <mxGeometry x="290" y="380" width="80" height="80" as="geometry" />
        </mxCell>
        <mxCell id="VyCGf-THsZre0-RN0kSX-188" style="edgeStyle=none;rounded=0;orthogonalLoop=1;jettySize=auto;html=1;exitX=0.5;exitY=1;exitDx=0;exitDy=0;entryX=0.5;entryY=0;entryDx=0;entryDy=0;" parent="1" source="VyCGf-THsZre0-RN0kSX-128" target="VyCGf-THsZre0-RN0kSX-174" edge="1">
          <mxGeometry relative="1" as="geometry" />
        </mxCell>
        <mxCell id="VyCGf-THsZre0-RN0kSX-189" style="edgeStyle=none;rounded=0;orthogonalLoop=1;jettySize=auto;html=1;exitX=0.5;exitY=1;exitDx=0;exitDy=0;entryX=0.5;entryY=0;entryDx=0;entryDy=0;" parent="1" source="VyCGf-THsZre0-RN0kSX-133" target="VyCGf-THsZre0-RN0kSX-185" edge="1">
          <mxGeometry relative="1" as="geometry" />
        </mxCell>
        <mxCell id="VyCGf-THsZre0-RN0kSX-190" style="edgeStyle=none;rounded=0;orthogonalLoop=1;jettySize=auto;html=1;exitX=0.5;exitY=1;exitDx=0;exitDy=0;entryX=0.5;entryY=0;entryDx=0;entryDy=0;" parent="1" source="VyCGf-THsZre0-RN0kSX-131" target="VyCGf-THsZre0-RN0kSX-186" edge="1">
          <mxGeometry relative="1" as="geometry" />
        </mxCell>
        <mxCell id="VyCGf-THsZre0-RN0kSX-191" value="Page9" style="swimlane;whiteSpace=wrap;html=1;" parent="1" vertex="1">
          <mxGeometry x="790" y="380" width="320" height="80" as="geometry" />
        </mxCell>
        <mxCell id="VyCGf-THsZre0-RN0kSX-192" value="20" style="rounded=0;whiteSpace=wrap;html=1;fillColor=#dae8fc;strokeColor=#6c8ebf;" parent="VyCGf-THsZre0-RN0kSX-191" vertex="1">
          <mxGeometry x="220" y="30.83" width="90" height="20" as="geometry" />
        </mxCell>
        <mxCell id="VyCGf-THsZre0-RN0kSX-193" value="20，李四" style="rounded=0;whiteSpace=wrap;html=1;fillColor=#f8cecc;strokeColor=#b85450;" parent="VyCGf-THsZre0-RN0kSX-191" vertex="1">
          <mxGeometry x="220" y="50.83" width="90" height="20" as="geometry" />
        </mxCell>
        <mxCell id="VyCGf-THsZre0-RN0kSX-194" style="edgeStyle=none;rounded=0;orthogonalLoop=1;jettySize=auto;html=1;exitX=1;exitY=0.5;exitDx=0;exitDy=0;entryX=0;entryY=0.5;entryDx=0;entryDy=0;" parent="VyCGf-THsZre0-RN0kSX-191" source="VyCGf-THsZre0-RN0kSX-195" target="VyCGf-THsZre0-RN0kSX-193" edge="1">
          <mxGeometry relative="1" as="geometry" />
        </mxCell>
        <mxCell id="VyCGf-THsZre0-RN0kSX-195" value="&lt;b&gt;······&lt;/b&gt;" style="text;html=1;align=center;verticalAlign=middle;whiteSpace=wrap;rounded=0;" parent="VyCGf-THsZre0-RN0kSX-191" vertex="1">
          <mxGeometry x="138" y="45.33" width="44" height="31" as="geometry" />
        </mxCell>
        <mxCell id="VyCGf-THsZre0-RN0kSX-196" style="edgeStyle=none;rounded=0;orthogonalLoop=1;jettySize=auto;html=1;exitX=1;exitY=0.5;exitDx=0;exitDy=0;entryX=0;entryY=0.5;entryDx=0;entryDy=0;" parent="VyCGf-THsZre0-RN0kSX-191" source="VyCGf-THsZre0-RN0kSX-198" target="VyCGf-THsZre0-RN0kSX-195" edge="1">
          <mxGeometry relative="1" as="geometry" />
        </mxCell>
        <mxCell id="VyCGf-THsZre0-RN0kSX-197" value="16" style="rounded=0;whiteSpace=wrap;html=1;fillColor=#dae8fc;strokeColor=#6c8ebf;" parent="VyCGf-THsZre0-RN0kSX-191" vertex="1">
          <mxGeometry x="11.5" y="30.829999999999984" width="90" height="20" as="geometry" />
        </mxCell>
        <mxCell id="VyCGf-THsZre0-RN0kSX-198" value="15, 张三" style="rounded=0;whiteSpace=wrap;html=1;fillColor=#f8cecc;strokeColor=#b85450;" parent="VyCGf-THsZre0-RN0kSX-191" vertex="1">
          <mxGeometry x="11.5" y="50.829999999999984" width="90" height="20" as="geometry" />
        </mxCell>
        <mxCell id="VyCGf-THsZre0-RN0kSX-199" style="edgeStyle=none;rounded=0;orthogonalLoop=1;jettySize=auto;html=1;exitX=0.5;exitY=1;exitDx=0;exitDy=0;entryX=0.5;entryY=0;entryDx=0;entryDy=0;" parent="1" source="VyCGf-THsZre0-RN0kSX-150" target="VyCGf-THsZre0-RN0kSX-191" edge="1">
          <mxGeometry relative="1" as="geometry" />
        </mxCell>
        <mxCell id="VyCGf-THsZre0-RN0kSX-201" style="edgeStyle=none;rounded=0;orthogonalLoop=1;jettySize=auto;html=1;exitX=0.5;exitY=1;exitDx=0;exitDy=0;entryX=0.5;entryY=0;entryDx=0;entryDy=0;" parent="1" source="VyCGf-THsZre0-RN0kSX-153" target="VyCGf-THsZre0-RN0kSX-191" edge="1">
          <mxGeometry relative="1" as="geometry" />
        </mxCell>
        <mxCell id="VyCGf-THsZre0-RN0kSX-202" style="edgeStyle=none;rounded=0;orthogonalLoop=1;jettySize=auto;html=1;exitX=0;exitY=0.5;exitDx=0;exitDy=0;entryX=0.5;entryY=0;entryDx=0;entryDy=0;" parent="1" source="VyCGf-THsZre0-RN0kSX-208" target="VyCGf-THsZre0-RN0kSX-218" edge="1">
          <mxGeometry relative="1" as="geometry">
            <mxPoint x="509" y="745" as="sourcePoint" />
            <mxPoint x="340" y="820" as="targetPoint" />
          </mxGeometry>
        </mxCell>
        <mxCell id="VyCGf-THsZre0-RN0kSX-203" style="edgeStyle=none;rounded=0;orthogonalLoop=1;jettySize=auto;html=1;exitX=1;exitY=0.5;exitDx=0;exitDy=0;entryX=0.5;entryY=0;entryDx=0;entryDy=0;" parent="1" source="VyCGf-THsZre0-RN0kSX-211" target="VyCGf-THsZre0-RN0kSX-321" edge="1">
          <mxGeometry relative="1" as="geometry">
            <mxPoint x="539" y="745" as="sourcePoint" />
            <mxPoint x="569" y="820" as="targetPoint" />
          </mxGeometry>
        </mxCell>
        <mxCell id="VyCGf-THsZre0-RN0kSX-204" value="Page1" style="swimlane;whiteSpace=wrap;html=1;" parent="1" vertex="1">
          <mxGeometry x="315" y="590" width="320" height="100" as="geometry" />
        </mxCell>
        <mxCell id="VyCGf-THsZre0-RN0kSX-205" value="" style="group" parent="VyCGf-THsZre0-RN0kSX-204" vertex="1" connectable="0">
          <mxGeometry x="11.5" y="30.83" width="90" height="60" as="geometry" />
        </mxCell>
        <mxCell id="VyCGf-THsZre0-RN0kSX-206" value="10" style="rounded=0;whiteSpace=wrap;html=1;fillColor=#dae8fc;strokeColor=#6c8ebf;" parent="VyCGf-THsZre0-RN0kSX-205" vertex="1">
          <mxGeometry width="90" height="20" as="geometry" />
        </mxCell>
        <mxCell id="VyCGf-THsZre0-RN0kSX-208" value="Page2" style="rounded=0;whiteSpace=wrap;html=1;fillColor=#d5e8d4;strokeColor=#82b366;" parent="VyCGf-THsZre0-RN0kSX-205" vertex="1">
          <mxGeometry y="20" width="90" height="20" as="geometry" />
        </mxCell>
        <mxCell id="VyCGf-THsZre0-RN0kSX-404" value="NP" style="text;strokeColor=#d79b00;fillColor=#ffe6cc;align=left;verticalAlign=middle;spacingLeft=4;spacingRight=4;overflow=hidden;points=[[0,0.5],[1,0.5]];portConstraint=eastwest;rotatable=0;whiteSpace=wrap;html=1;" parent="VyCGf-THsZre0-RN0kSX-205" vertex="1">
          <mxGeometry y="40" width="90" height="20" as="geometry" />
        </mxCell>
        <mxCell id="VyCGf-THsZre0-RN0kSX-209" value="20" style="rounded=0;whiteSpace=wrap;html=1;fillColor=#dae8fc;strokeColor=#6c8ebf;" parent="VyCGf-THsZre0-RN0kSX-204" vertex="1">
          <mxGeometry x="220" y="30.83" width="90" height="20" as="geometry" />
        </mxCell>
        <mxCell id="VyCGf-THsZre0-RN0kSX-211" value="Page4" style="rounded=0;whiteSpace=wrap;html=1;fillColor=#d5e8d4;strokeColor=#82b366;" parent="VyCGf-THsZre0-RN0kSX-204" vertex="1">
          <mxGeometry x="220" y="50.83" width="90" height="20" as="geometry" />
        </mxCell>
        <mxCell id="VyCGf-THsZre0-RN0kSX-212" style="edgeStyle=none;rounded=0;orthogonalLoop=1;jettySize=auto;html=1;exitX=1;exitY=0.5;exitDx=0;exitDy=0;entryX=0;entryY=0.5;entryDx=0;entryDy=0;" parent="VyCGf-THsZre0-RN0kSX-204" source="VyCGf-THsZre0-RN0kSX-213" target="VyCGf-THsZre0-RN0kSX-409" edge="1">
          <mxGeometry relative="1" as="geometry">
            <mxPoint x="220" y="60.82999999999993" as="targetPoint" />
          </mxGeometry>
        </mxCell>
        <mxCell id="VyCGf-THsZre0-RN0kSX-213" value="&lt;b&gt;······&lt;/b&gt;" style="text;html=1;align=center;verticalAlign=middle;whiteSpace=wrap;rounded=0;" parent="VyCGf-THsZre0-RN0kSX-204" vertex="1">
          <mxGeometry x="138" y="65.33" width="44" height="31" as="geometry" />
        </mxCell>
        <mxCell id="VyCGf-THsZre0-RN0kSX-214" style="edgeStyle=none;rounded=0;orthogonalLoop=1;jettySize=auto;html=1;exitX=1;exitY=0.5;exitDx=0;exitDy=0;entryX=0;entryY=0.5;entryDx=0;entryDy=0;" parent="VyCGf-THsZre0-RN0kSX-204" source="VyCGf-THsZre0-RN0kSX-404" target="VyCGf-THsZre0-RN0kSX-213" edge="1">
          <mxGeometry relative="1" as="geometry">
            <mxPoint x="101.5" y="60.82999999999993" as="sourcePoint" />
          </mxGeometry>
        </mxCell>
        <mxCell id="VyCGf-THsZre0-RN0kSX-409" value="NP" style="text;strokeColor=#d79b00;fillColor=#ffe6cc;align=left;verticalAlign=middle;spacingLeft=4;spacingRight=4;overflow=hidden;points=[[0,0.5],[1,0.5]];portConstraint=eastwest;rotatable=0;whiteSpace=wrap;html=1;" parent="VyCGf-THsZre0-RN0kSX-204" vertex="1">
          <mxGeometry x="220" y="70.83000000000004" width="90" height="20" as="geometry" />
        </mxCell>
        <mxCell id="VyCGf-THsZre0-RN0kSX-215" value="key" style="rounded=0;whiteSpace=wrap;html=1;fillColor=#dae8fc;strokeColor=#6c8ebf;" parent="1" vertex="1">
          <mxGeometry x="830" y="590" width="170" height="20" as="geometry" />
        </mxCell>
        <mxCell id="VyCGf-THsZre0-RN0kSX-216" value="Data Area" style="rounded=0;whiteSpace=wrap;html=1;fillColor=#f8cecc;strokeColor=#b85450;" parent="1" vertex="1">
          <mxGeometry x="830" y="610" width="170" height="20" as="geometry" />
        </mxCell>
        <mxCell id="VyCGf-THsZre0-RN0kSX-217" value="Point (To Page)" style="rounded=0;whiteSpace=wrap;html=1;fillColor=#d5e8d4;strokeColor=#82b366;" parent="1" vertex="1">
          <mxGeometry x="830" y="630" width="170" height="20" as="geometry" />
        </mxCell>
        <mxCell id="VyCGf-THsZre0-RN0kSX-218" value="Page2" style="swimlane;whiteSpace=wrap;html=1;" parent="1" vertex="1">
          <mxGeometry x="40" y="780" width="270" height="220" as="geometry" />
        </mxCell>
        <mxCell id="VyCGf-THsZre0-RN0kSX-278" value="Node Data" style="swimlane;whiteSpace=wrap;html=1;" parent="VyCGf-THsZre0-RN0kSX-218" vertex="1">
          <mxGeometry x="20.75" y="40" width="218.5" height="130" as="geometry" />
        </mxCell>
        <mxCell id="VyCGf-THsZre0-RN0kSX-296" style="edgeStyle=none;rounded=0;orthogonalLoop=1;jettySize=auto;html=1;exitX=1;exitY=0.5;exitDx=0;exitDy=0;entryX=0;entryY=0.5;entryDx=0;entryDy=0;" parent="VyCGf-THsZre0-RN0kSX-278" source="VyCGf-THsZre0-RN0kSX-299" target="VyCGf-THsZre0-RN0kSX-295" edge="1">
          <mxGeometry relative="1" as="geometry" />
        </mxCell>
        <mxCell id="VyCGf-THsZre0-RN0kSX-288" value="&lt;b&gt;Node&lt;/b&gt;" style="swimlane;fontStyle=0;childLayout=stackLayout;horizontal=1;startSize=20;horizontalStack=0;resizeParent=1;resizeParentMax=0;resizeLast=0;collapsible=1;marginBottom=0;whiteSpace=wrap;html=1;" parent="VyCGf-THsZre0-RN0kSX-278" vertex="1">
          <mxGeometry x="10" y="40" width="60" height="80" as="geometry" />
        </mxCell>
        <mxCell id="VyCGf-THsZre0-RN0kSX-289" value="1" style="text;strokeColor=#6c8ebf;fillColor=#dae8fc;align=left;verticalAlign=middle;spacingLeft=4;spacingRight=4;overflow=hidden;points=[[0,0.5],[1,0.5]];portConstraint=eastwest;rotatable=0;whiteSpace=wrap;html=1;" parent="VyCGf-THsZre0-RN0kSX-288" vertex="1">
          <mxGeometry y="20" width="60" height="20" as="geometry" />
        </mxCell>
        <mxCell id="VyCGf-THsZre0-RN0kSX-290" value="Page5" style="text;strokeColor=#82b366;fillColor=#d5e8d4;align=left;verticalAlign=middle;spacingLeft=4;spacingRight=4;overflow=hidden;points=[[0,0.5],[1,0.5]];portConstraint=eastwest;rotatable=0;whiteSpace=wrap;html=1;" parent="VyCGf-THsZre0-RN0kSX-288" vertex="1">
          <mxGeometry y="40" width="60" height="20" as="geometry" />
        </mxCell>
        <mxCell id="VyCGf-THsZre0-RN0kSX-299" value="NP" style="text;strokeColor=#d79b00;fillColor=#ffe6cc;align=left;verticalAlign=middle;spacingLeft=4;spacingRight=4;overflow=hidden;points=[[0,0.5],[1,0.5]];portConstraint=eastwest;rotatable=0;whiteSpace=wrap;html=1;" parent="VyCGf-THsZre0-RN0kSX-288" vertex="1">
          <mxGeometry y="60" width="60" height="20" as="geometry" />
        </mxCell>
        <mxCell id="VyCGf-THsZre0-RN0kSX-292" value="&lt;b&gt;Node&lt;/b&gt;" style="swimlane;fontStyle=0;childLayout=stackLayout;horizontal=1;startSize=20;horizontalStack=0;resizeParent=1;resizeParentMax=0;resizeLast=0;collapsible=1;marginBottom=0;whiteSpace=wrap;html=1;" parent="VyCGf-THsZre0-RN0kSX-278" vertex="1">
          <mxGeometry x="150" y="40" width="60" height="80" as="geometry" />
        </mxCell>
        <mxCell id="VyCGf-THsZre0-RN0kSX-293" value="10" style="text;strokeColor=#6c8ebf;fillColor=#dae8fc;align=left;verticalAlign=middle;spacingLeft=4;spacingRight=4;overflow=hidden;points=[[0,0.5],[1,0.5]];portConstraint=eastwest;rotatable=0;whiteSpace=wrap;html=1;" parent="VyCGf-THsZre0-RN0kSX-292" vertex="1">
          <mxGeometry y="20" width="60" height="20" as="geometry" />
        </mxCell>
        <mxCell id="VyCGf-THsZre0-RN0kSX-294" value="Page7" style="text;strokeColor=#82b366;fillColor=#d5e8d4;align=left;verticalAlign=middle;spacingLeft=4;spacingRight=4;overflow=hidden;points=[[0,0.5],[1,0.5]];portConstraint=eastwest;rotatable=0;whiteSpace=wrap;html=1;" parent="VyCGf-THsZre0-RN0kSX-292" vertex="1">
          <mxGeometry y="40" width="60" height="20" as="geometry" />
        </mxCell>
        <mxCell id="VyCGf-THsZre0-RN0kSX-300" value="NP" style="text;strokeColor=#d79b00;fillColor=#ffe6cc;align=left;verticalAlign=middle;spacingLeft=4;spacingRight=4;overflow=hidden;points=[[0,0.5],[1,0.5]];portConstraint=eastwest;rotatable=0;whiteSpace=wrap;html=1;" parent="VyCGf-THsZre0-RN0kSX-292" vertex="1">
          <mxGeometry y="60" width="60" height="20" as="geometry" />
        </mxCell>
        <mxCell id="VyCGf-THsZre0-RN0kSX-297" style="edgeStyle=none;rounded=0;orthogonalLoop=1;jettySize=auto;html=1;exitX=1;exitY=0.5;exitDx=0;exitDy=0;entryX=0;entryY=0.5;entryDx=0;entryDy=0;" parent="VyCGf-THsZre0-RN0kSX-278" source="VyCGf-THsZre0-RN0kSX-295" target="VyCGf-THsZre0-RN0kSX-300" edge="1">
          <mxGeometry relative="1" as="geometry" />
        </mxCell>
        <mxCell id="VyCGf-THsZre0-RN0kSX-295" value="&lt;b&gt;······&lt;/b&gt;" style="text;html=1;align=center;verticalAlign=middle;whiteSpace=wrap;rounded=0;" parent="VyCGf-THsZre0-RN0kSX-278" vertex="1">
          <mxGeometry x="90" y="94.5" width="40" height="31" as="geometry" />
        </mxCell>
        <mxCell id="VyCGf-THsZre0-RN0kSX-303" value="&lt;b&gt;Node Point&lt;/b&gt;" style="rounded=0;whiteSpace=wrap;html=1;fillColor=#e1d5e7;strokeColor=#9673a6;" parent="VyCGf-THsZre0-RN0kSX-218" vertex="1">
          <mxGeometry x="20.75" y="170" width="218.5" height="30" as="geometry" />
        </mxCell>
        <mxCell id="VyCGf-THsZre0-RN0kSX-249" style="edgeStyle=none;rounded=0;orthogonalLoop=1;jettySize=auto;html=1;exitX=0.5;exitY=1;exitDx=0;exitDy=0;entryX=0.5;entryY=0;entryDx=0;entryDy=0;" parent="1" source="VyCGf-THsZre0-RN0kSX-213" target="VyCGf-THsZre0-RN0kSX-304" edge="1">
          <mxGeometry relative="1" as="geometry">
            <mxPoint x="880" y="850" as="targetPoint" />
          </mxGeometry>
        </mxCell>
        <mxCell id="VyCGf-THsZre0-RN0kSX-304" value="Page3" style="swimlane;whiteSpace=wrap;html=1;" parent="1" vertex="1">
          <mxGeometry x="340" y="780" width="270" height="220" as="geometry" />
        </mxCell>
        <mxCell id="VyCGf-THsZre0-RN0kSX-305" value="Node Data" style="swimlane;whiteSpace=wrap;html=1;" parent="VyCGf-THsZre0-RN0kSX-304" vertex="1">
          <mxGeometry x="30" y="40" width="218.5" height="130" as="geometry" />
        </mxCell>
        <mxCell id="VyCGf-THsZre0-RN0kSX-306" style="edgeStyle=none;rounded=0;orthogonalLoop=1;jettySize=auto;html=1;exitX=1;exitY=0.5;exitDx=0;exitDy=0;entryX=0;entryY=0.5;entryDx=0;entryDy=0;" parent="VyCGf-THsZre0-RN0kSX-305" source="VyCGf-THsZre0-RN0kSX-310" target="VyCGf-THsZre0-RN0kSX-316" edge="1">
          <mxGeometry relative="1" as="geometry" />
        </mxCell>
        <mxCell id="VyCGf-THsZre0-RN0kSX-307" value="&lt;b&gt;Node&lt;/b&gt;" style="swimlane;fontStyle=0;childLayout=stackLayout;horizontal=1;startSize=20;horizontalStack=0;resizeParent=1;resizeParentMax=0;resizeLast=0;collapsible=1;marginBottom=0;whiteSpace=wrap;html=1;" parent="VyCGf-THsZre0-RN0kSX-305" vertex="1">
          <mxGeometry x="10" y="40" width="60" height="80" as="geometry" />
        </mxCell>
        <mxCell id="VyCGf-THsZre0-RN0kSX-308" value="11" style="text;strokeColor=#6c8ebf;fillColor=#dae8fc;align=left;verticalAlign=middle;spacingLeft=4;spacingRight=4;overflow=hidden;points=[[0,0.5],[1,0.5]];portConstraint=eastwest;rotatable=0;whiteSpace=wrap;html=1;" parent="VyCGf-THsZre0-RN0kSX-307" vertex="1">
          <mxGeometry y="20" width="60" height="20" as="geometry" />
        </mxCell>
        <mxCell id="VyCGf-THsZre0-RN0kSX-403" style="edgeStyle=orthogonalEdgeStyle;curved=1;rounded=0;orthogonalLoop=1;jettySize=auto;html=1;exitX=1;exitY=0.5;exitDx=0;exitDy=0;" parent="VyCGf-THsZre0-RN0kSX-307" source="VyCGf-THsZre0-RN0kSX-309" edge="1">
          <mxGeometry relative="1" as="geometry">
            <mxPoint x="89.99999999999977" y="190" as="targetPoint" />
          </mxGeometry>
        </mxCell>
        <mxCell id="VyCGf-THsZre0-RN0kSX-309" value="Page8" style="text;strokeColor=#82b366;fillColor=#d5e8d4;align=left;verticalAlign=middle;spacingLeft=4;spacingRight=4;overflow=hidden;points=[[0,0.5],[1,0.5]];portConstraint=eastwest;rotatable=0;whiteSpace=wrap;html=1;" parent="VyCGf-THsZre0-RN0kSX-307" vertex="1">
          <mxGeometry y="40" width="60" height="20" as="geometry" />
        </mxCell>
        <mxCell id="VyCGf-THsZre0-RN0kSX-310" value="NP" style="text;strokeColor=#d79b00;fillColor=#ffe6cc;align=left;verticalAlign=middle;spacingLeft=4;spacingRight=4;overflow=hidden;points=[[0,0.5],[1,0.5]];portConstraint=eastwest;rotatable=0;whiteSpace=wrap;html=1;" parent="VyCGf-THsZre0-RN0kSX-307" vertex="1">
          <mxGeometry y="60" width="60" height="20" as="geometry" />
        </mxCell>
        <mxCell id="VyCGf-THsZre0-RN0kSX-311" value="&lt;b&gt;Node&lt;/b&gt;" style="swimlane;fontStyle=0;childLayout=stackLayout;horizontal=1;startSize=20;horizontalStack=0;resizeParent=1;resizeParentMax=0;resizeLast=0;collapsible=1;marginBottom=0;whiteSpace=wrap;html=1;" parent="VyCGf-THsZre0-RN0kSX-305" vertex="1">
          <mxGeometry x="150" y="40" width="60" height="80" as="geometry" />
        </mxCell>
        <mxCell id="VyCGf-THsZre0-RN0kSX-312" value="15" style="text;strokeColor=#6c8ebf;fillColor=#dae8fc;align=left;verticalAlign=middle;spacingLeft=4;spacingRight=4;overflow=hidden;points=[[0,0.5],[1,0.5]];portConstraint=eastwest;rotatable=0;whiteSpace=wrap;html=1;" parent="VyCGf-THsZre0-RN0kSX-311" vertex="1">
          <mxGeometry y="20" width="60" height="20" as="geometry" />
        </mxCell>
        <mxCell id="VyCGf-THsZre0-RN0kSX-402" style="edgeStyle=orthogonalEdgeStyle;curved=1;rounded=0;orthogonalLoop=1;jettySize=auto;html=1;exitX=0;exitY=0.5;exitDx=0;exitDy=0;" parent="VyCGf-THsZre0-RN0kSX-311" source="VyCGf-THsZre0-RN0kSX-313" edge="1">
          <mxGeometry relative="1" as="geometry">
            <mxPoint x="-50.00000000000023" y="190" as="targetPoint" />
          </mxGeometry>
        </mxCell>
        <mxCell id="VyCGf-THsZre0-RN0kSX-313" value="Page8" style="text;strokeColor=#82b366;fillColor=#d5e8d4;align=left;verticalAlign=middle;spacingLeft=4;spacingRight=4;overflow=hidden;points=[[0,0.5],[1,0.5]];portConstraint=eastwest;rotatable=0;whiteSpace=wrap;html=1;" parent="VyCGf-THsZre0-RN0kSX-311" vertex="1">
          <mxGeometry y="40" width="60" height="20" as="geometry" />
        </mxCell>
        <mxCell id="VyCGf-THsZre0-RN0kSX-314" value="NP" style="text;strokeColor=#d79b00;fillColor=#ffe6cc;align=left;verticalAlign=middle;spacingLeft=4;spacingRight=4;overflow=hidden;points=[[0,0.5],[1,0.5]];portConstraint=eastwest;rotatable=0;whiteSpace=wrap;html=1;" parent="VyCGf-THsZre0-RN0kSX-311" vertex="1">
          <mxGeometry y="60" width="60" height="20" as="geometry" />
        </mxCell>
        <mxCell id="VyCGf-THsZre0-RN0kSX-315" style="edgeStyle=none;rounded=0;orthogonalLoop=1;jettySize=auto;html=1;exitX=1;exitY=0.5;exitDx=0;exitDy=0;entryX=0;entryY=0.5;entryDx=0;entryDy=0;" parent="VyCGf-THsZre0-RN0kSX-305" source="VyCGf-THsZre0-RN0kSX-316" target="VyCGf-THsZre0-RN0kSX-314" edge="1">
          <mxGeometry relative="1" as="geometry" />
        </mxCell>
        <mxCell id="VyCGf-THsZre0-RN0kSX-316" value="&lt;b&gt;······&lt;/b&gt;" style="text;html=1;align=center;verticalAlign=middle;whiteSpace=wrap;rounded=0;" parent="VyCGf-THsZre0-RN0kSX-305" vertex="1">
          <mxGeometry x="90" y="94.5" width="40" height="31" as="geometry" />
        </mxCell>
        <mxCell id="VyCGf-THsZre0-RN0kSX-317" value="&lt;b&gt;Node Point&lt;/b&gt;" style="rounded=0;whiteSpace=wrap;html=1;fillColor=#e1d5e7;strokeColor=#9673a6;" parent="VyCGf-THsZre0-RN0kSX-304" vertex="1">
          <mxGeometry x="30" y="170" width="218.5" height="30" as="geometry" />
        </mxCell>
        <mxCell id="VyCGf-THsZre0-RN0kSX-320" value="" style="endArrow=classic;startArrow=classic;html=1;rounded=0;entryX=1;entryY=0.5;entryDx=0;entryDy=0;exitX=0;exitY=0.5;exitDx=0;exitDy=0;" parent="1" source="VyCGf-THsZre0-RN0kSX-317" target="VyCGf-THsZre0-RN0kSX-303" edge="1">
          <mxGeometry width="50" height="50" relative="1" as="geometry">
            <mxPoint x="610" y="1000" as="sourcePoint" />
            <mxPoint x="660" y="950" as="targetPoint" />
          </mxGeometry>
        </mxCell>
        <mxCell id="VyCGf-THsZre0-RN0kSX-321" value="Page4" style="swimlane;whiteSpace=wrap;html=1;" parent="1" vertex="1">
          <mxGeometry x="660" y="780" width="270" height="220" as="geometry" />
        </mxCell>
        <mxCell id="VyCGf-THsZre0-RN0kSX-322" value="Node Data" style="swimlane;whiteSpace=wrap;html=1;" parent="VyCGf-THsZre0-RN0kSX-321" vertex="1">
          <mxGeometry x="30" y="40" width="218.5" height="130" as="geometry" />
        </mxCell>
        <mxCell id="VyCGf-THsZre0-RN0kSX-323" style="edgeStyle=none;rounded=0;orthogonalLoop=1;jettySize=auto;html=1;exitX=1;exitY=0.5;exitDx=0;exitDy=0;entryX=0;entryY=0.5;entryDx=0;entryDy=0;" parent="VyCGf-THsZre0-RN0kSX-322" source="VyCGf-THsZre0-RN0kSX-327" target="VyCGf-THsZre0-RN0kSX-333" edge="1">
          <mxGeometry relative="1" as="geometry" />
        </mxCell>
        <mxCell id="VyCGf-THsZre0-RN0kSX-324" value="&lt;b&gt;Node&lt;/b&gt;" style="swimlane;fontStyle=0;childLayout=stackLayout;horizontal=1;startSize=20;horizontalStack=0;resizeParent=1;resizeParentMax=0;resizeLast=0;collapsible=1;marginBottom=0;whiteSpace=wrap;html=1;" parent="VyCGf-THsZre0-RN0kSX-322" vertex="1">
          <mxGeometry x="10" y="40" width="60" height="80" as="geometry" />
        </mxCell>
        <mxCell id="VyCGf-THsZre0-RN0kSX-325" value="16" style="text;strokeColor=#6c8ebf;fillColor=#dae8fc;align=left;verticalAlign=middle;spacingLeft=4;spacingRight=4;overflow=hidden;points=[[0,0.5],[1,0.5]];portConstraint=eastwest;rotatable=0;whiteSpace=wrap;html=1;" parent="VyCGf-THsZre0-RN0kSX-324" vertex="1">
          <mxGeometry y="20" width="60" height="20" as="geometry" />
        </mxCell>
        <mxCell id="VyCGf-THsZre0-RN0kSX-326" value="Page9" style="text;strokeColor=#82b366;fillColor=#d5e8d4;align=left;verticalAlign=middle;spacingLeft=4;spacingRight=4;overflow=hidden;points=[[0,0.5],[1,0.5]];portConstraint=eastwest;rotatable=0;whiteSpace=wrap;html=1;" parent="VyCGf-THsZre0-RN0kSX-324" vertex="1">
          <mxGeometry y="40" width="60" height="20" as="geometry" />
        </mxCell>
        <mxCell id="VyCGf-THsZre0-RN0kSX-327" value="NP" style="text;strokeColor=#d79b00;fillColor=#ffe6cc;align=left;verticalAlign=middle;spacingLeft=4;spacingRight=4;overflow=hidden;points=[[0,0.5],[1,0.5]];portConstraint=eastwest;rotatable=0;whiteSpace=wrap;html=1;" parent="VyCGf-THsZre0-RN0kSX-324" vertex="1">
          <mxGeometry y="60" width="60" height="20" as="geometry" />
        </mxCell>
        <mxCell id="VyCGf-THsZre0-RN0kSX-328" value="&lt;b&gt;Node&lt;/b&gt;" style="swimlane;fontStyle=0;childLayout=stackLayout;horizontal=1;startSize=20;horizontalStack=0;resizeParent=1;resizeParentMax=0;resizeLast=0;collapsible=1;marginBottom=0;whiteSpace=wrap;html=1;" parent="VyCGf-THsZre0-RN0kSX-322" vertex="1">
          <mxGeometry x="150" y="40" width="60" height="80" as="geometry" />
        </mxCell>
        <mxCell id="VyCGf-THsZre0-RN0kSX-329" value="20" style="text;strokeColor=#6c8ebf;fillColor=#dae8fc;align=left;verticalAlign=middle;spacingLeft=4;spacingRight=4;overflow=hidden;points=[[0,0.5],[1,0.5]];portConstraint=eastwest;rotatable=0;whiteSpace=wrap;html=1;" parent="VyCGf-THsZre0-RN0kSX-328" vertex="1">
          <mxGeometry y="20" width="60" height="20" as="geometry" />
        </mxCell>
        <mxCell id="VyCGf-THsZre0-RN0kSX-330" value="Page12" style="text;strokeColor=#82b366;fillColor=#d5e8d4;align=left;verticalAlign=middle;spacingLeft=4;spacingRight=4;overflow=hidden;points=[[0,0.5],[1,0.5]];portConstraint=eastwest;rotatable=0;whiteSpace=wrap;html=1;" parent="VyCGf-THsZre0-RN0kSX-328" vertex="1">
          <mxGeometry y="40" width="60" height="20" as="geometry" />
        </mxCell>
        <mxCell id="VyCGf-THsZre0-RN0kSX-331" value="NP" style="text;strokeColor=#d79b00;fillColor=#ffe6cc;align=left;verticalAlign=middle;spacingLeft=4;spacingRight=4;overflow=hidden;points=[[0,0.5],[1,0.5]];portConstraint=eastwest;rotatable=0;whiteSpace=wrap;html=1;" parent="VyCGf-THsZre0-RN0kSX-328" vertex="1">
          <mxGeometry y="60" width="60" height="20" as="geometry" />
        </mxCell>
        <mxCell id="VyCGf-THsZre0-RN0kSX-332" style="edgeStyle=none;rounded=0;orthogonalLoop=1;jettySize=auto;html=1;exitX=1;exitY=0.5;exitDx=0;exitDy=0;entryX=0;entryY=0.5;entryDx=0;entryDy=0;" parent="VyCGf-THsZre0-RN0kSX-322" source="VyCGf-THsZre0-RN0kSX-333" target="VyCGf-THsZre0-RN0kSX-331" edge="1">
          <mxGeometry relative="1" as="geometry" />
        </mxCell>
        <mxCell id="VyCGf-THsZre0-RN0kSX-333" value="&lt;b&gt;······&lt;/b&gt;" style="text;html=1;align=center;verticalAlign=middle;whiteSpace=wrap;rounded=0;" parent="VyCGf-THsZre0-RN0kSX-322" vertex="1">
          <mxGeometry x="90" y="94.5" width="40" height="31" as="geometry" />
        </mxCell>
        <mxCell id="VyCGf-THsZre0-RN0kSX-334" value="&lt;b&gt;Node Point&lt;/b&gt;" style="rounded=0;whiteSpace=wrap;html=1;fillColor=#e1d5e7;strokeColor=#9673a6;" parent="VyCGf-THsZre0-RN0kSX-321" vertex="1">
          <mxGeometry x="30" y="170" width="218.5" height="30" as="geometry" />
        </mxCell>
        <mxCell id="VyCGf-THsZre0-RN0kSX-358" value="Page9" style="swimlane;fontStyle=0;childLayout=stackLayout;horizontal=1;startSize=30;horizontalStack=0;resizeParent=1;resizeParentMax=0;resizeLast=0;collapsible=1;marginBottom=0;whiteSpace=wrap;html=1;" parent="1" vertex="1">
          <mxGeometry x="590" y="1050" width="160" height="310.84" as="geometry" />
        </mxCell>
        <mxCell id="VyCGf-THsZre0-RN0kSX-344" value="Node&amp;nbsp;Data" style="swimlane;whiteSpace=wrap;html=1;" parent="VyCGf-THsZre0-RN0kSX-358" vertex="1">
          <mxGeometry y="30" width="160" height="250.42" as="geometry" />
        </mxCell>
        <mxCell id="VyCGf-THsZre0-RN0kSX-357" style="edgeStyle=orthogonalEdgeStyle;rounded=0;orthogonalLoop=1;jettySize=auto;html=1;exitX=0;exitY=1;exitDx=0;exitDy=0;entryX=0;entryY=1;entryDx=0;entryDy=0;" parent="VyCGf-THsZre0-RN0kSX-344" source="VyCGf-THsZre0-RN0kSX-348" target="VyCGf-THsZre0-RN0kSX-352" edge="1">
          <mxGeometry relative="1" as="geometry">
            <mxPoint x="27.47" y="237.29000000000008" as="targetPoint" />
            <Array as="points">
              <mxPoint x="47.47" y="106.87" />
              <mxPoint x="27.47" y="106.87" />
              <mxPoint x="27.47" y="223.87" />
            </Array>
          </mxGeometry>
        </mxCell>
        <mxCell id="VyCGf-THsZre0-RN0kSX-348" value="&lt;b&gt;Node&lt;/b&gt;" style="swimlane;fontStyle=0;childLayout=stackLayout;horizontal=1;startSize=20;horizontalStack=0;resizeParent=1;resizeParentMax=0;resizeLast=0;collapsible=1;marginBottom=0;whiteSpace=wrap;html=1;" parent="VyCGf-THsZre0-RN0kSX-344" vertex="1">
          <mxGeometry x="47.47" y="40" width="85" height="80" as="geometry" />
        </mxCell>
        <mxCell id="VyCGf-THsZre0-RN0kSX-349" value="16" style="text;strokeColor=#6c8ebf;fillColor=#dae8fc;align=left;verticalAlign=middle;spacingLeft=4;spacingRight=4;overflow=hidden;points=[[0,0.5],[1,0.5]];portConstraint=eastwest;rotatable=0;whiteSpace=wrap;html=1;" parent="VyCGf-THsZre0-RN0kSX-348" vertex="1">
          <mxGeometry y="20" width="85" height="20" as="geometry" />
        </mxCell>
        <mxCell id="VyCGf-THsZre0-RN0kSX-350" value="16, 神吊瞎虑" style="text;strokeColor=#B20000;fillColor=#e51400;align=left;verticalAlign=middle;spacingLeft=4;spacingRight=4;overflow=hidden;points=[[0,0.5],[1,0.5]];portConstraint=eastwest;rotatable=0;whiteSpace=wrap;html=1;fontColor=#ffffff;" parent="VyCGf-THsZre0-RN0kSX-348" vertex="1">
          <mxGeometry y="40" width="85" height="20" as="geometry" />
        </mxCell>
        <mxCell id="VyCGf-THsZre0-RN0kSX-351" value="NP" style="text;strokeColor=#d79b00;fillColor=#ffe6cc;align=left;verticalAlign=middle;spacingLeft=4;spacingRight=4;overflow=hidden;points=[[0,0.5],[1,0.5]];portConstraint=eastwest;rotatable=0;whiteSpace=wrap;html=1;" parent="VyCGf-THsZre0-RN0kSX-348" vertex="1">
          <mxGeometry y="60" width="85" height="20" as="geometry" />
        </mxCell>
        <mxCell id="VyCGf-THsZre0-RN0kSX-352" value="&lt;b&gt;Node&lt;/b&gt;" style="swimlane;fontStyle=0;childLayout=stackLayout;horizontal=1;startSize=20;horizontalStack=0;resizeParent=1;resizeParentMax=0;resizeLast=0;collapsible=1;marginBottom=0;whiteSpace=wrap;html=1;" parent="VyCGf-THsZre0-RN0kSX-344" vertex="1">
          <mxGeometry x="47.47" y="144.17000000000007" width="85" height="80" as="geometry" />
        </mxCell>
        <mxCell id="VyCGf-THsZre0-RN0kSX-353" value="17" style="text;strokeColor=#6c8ebf;fillColor=#dae8fc;align=left;verticalAlign=middle;spacingLeft=4;spacingRight=4;overflow=hidden;points=[[0,0.5],[1,0.5]];portConstraint=eastwest;rotatable=0;whiteSpace=wrap;html=1;" parent="VyCGf-THsZre0-RN0kSX-352" vertex="1">
          <mxGeometry y="20" width="85" height="20" as="geometry" />
        </mxCell>
        <mxCell id="VyCGf-THsZre0-RN0kSX-354" value="17, 贼二" style="text;strokeColor=#B20000;fillColor=#e51400;align=left;verticalAlign=middle;spacingLeft=4;spacingRight=4;overflow=hidden;points=[[0,0.5],[1,0.5]];portConstraint=eastwest;rotatable=0;whiteSpace=wrap;html=1;fontColor=#ffffff;" parent="VyCGf-THsZre0-RN0kSX-352" vertex="1">
          <mxGeometry y="40" width="85" height="20" as="geometry" />
        </mxCell>
        <mxCell id="VyCGf-THsZre0-RN0kSX-355" value="NP" style="text;strokeColor=#d79b00;fillColor=#ffe6cc;align=left;verticalAlign=middle;spacingLeft=4;spacingRight=4;overflow=hidden;points=[[0,0.5],[1,0.5]];portConstraint=eastwest;rotatable=0;whiteSpace=wrap;html=1;" parent="VyCGf-THsZre0-RN0kSX-352" vertex="1">
          <mxGeometry y="60" width="85" height="20" as="geometry" />
        </mxCell>
        <mxCell id="VyCGf-THsZre0-RN0kSX-343" value="Node Point" style="text;strokeColor=#9673a6;fillColor=#e1d5e7;align=center;verticalAlign=middle;spacingLeft=4;spacingRight=4;overflow=hidden;points=[[0,0.5],[1,0.5]];portConstraint=eastwest;rotatable=0;whiteSpace=wrap;html=1;fontStyle=1" parent="VyCGf-THsZre0-RN0kSX-358" vertex="1">
          <mxGeometry y="280.41999999999996" width="160" height="30.42" as="geometry" />
        </mxCell>
        <mxCell id="VyCGf-THsZre0-RN0kSX-363" style="edgeStyle=orthogonalEdgeStyle;curved=1;rounded=0;orthogonalLoop=1;jettySize=auto;html=1;exitX=0;exitY=0.5;exitDx=0;exitDy=0;entryX=0.5;entryY=0;entryDx=0;entryDy=0;" parent="1" source="VyCGf-THsZre0-RN0kSX-326" target="VyCGf-THsZre0-RN0kSX-358" edge="1">
          <mxGeometry relative="1" as="geometry" />
        </mxCell>
        <mxCell id="VyCGf-THsZre0-RN0kSX-364" value="Page12" style="swimlane;fontStyle=0;childLayout=stackLayout;horizontal=1;startSize=30;horizontalStack=0;resizeParent=1;resizeParentMax=0;resizeLast=0;collapsible=1;marginBottom=0;whiteSpace=wrap;html=1;" parent="1" vertex="1">
          <mxGeometry x="870" y="1050" width="130" height="310.84" as="geometry" />
        </mxCell>
        <mxCell id="VyCGf-THsZre0-RN0kSX-365" value="Node&amp;nbsp;Data" style="swimlane;whiteSpace=wrap;html=1;" parent="VyCGf-THsZre0-RN0kSX-364" vertex="1">
          <mxGeometry y="30" width="130" height="250.42" as="geometry" />
        </mxCell>
        <mxCell id="VyCGf-THsZre0-RN0kSX-375" value="Node Point" style="text;strokeColor=#9673a6;fillColor=#e1d5e7;align=center;verticalAlign=middle;spacingLeft=4;spacingRight=4;overflow=hidden;points=[[0,0.5],[1,0.5]];portConstraint=eastwest;rotatable=0;whiteSpace=wrap;html=1;fontStyle=1" parent="VyCGf-THsZre0-RN0kSX-364" vertex="1">
          <mxGeometry y="280.41999999999996" width="130" height="30.42" as="geometry" />
        </mxCell>
        <mxCell id="VyCGf-THsZre0-RN0kSX-376" value="&lt;span&gt;······&lt;/span&gt;" style="text;html=1;align=center;verticalAlign=middle;whiteSpace=wrap;rounded=0;fontStyle=1" parent="1" vertex="1">
          <mxGeometry x="790" y="1329.84" width="40" height="31" as="geometry" />
        </mxCell>
        <mxCell id="VyCGf-THsZre0-RN0kSX-379" value="" style="endArrow=classic;startArrow=classic;html=1;rounded=0;curved=1;entryX=0;entryY=0.5;entryDx=0;entryDy=0;exitX=1;exitY=0.5;exitDx=0;exitDy=0;" parent="1" source="VyCGf-THsZre0-RN0kSX-343" target="VyCGf-THsZre0-RN0kSX-376" edge="1">
          <mxGeometry width="50" height="50" relative="1" as="geometry">
            <mxPoint x="510" y="1200" as="sourcePoint" />
            <mxPoint x="560" y="1150" as="targetPoint" />
          </mxGeometry>
        </mxCell>
        <mxCell id="VyCGf-THsZre0-RN0kSX-380" value="" style="endArrow=classic;startArrow=classic;html=1;rounded=0;curved=1;entryX=0;entryY=0.5;entryDx=0;entryDy=0;exitX=0.897;exitY=0.502;exitDx=0;exitDy=0;exitPerimeter=0;" parent="1" source="VyCGf-THsZre0-RN0kSX-376" target="VyCGf-THsZre0-RN0kSX-375" edge="1">
          <mxGeometry width="50" height="50" relative="1" as="geometry">
            <mxPoint x="860" y="1380.66" as="sourcePoint" />
            <mxPoint x="920" y="1379.66" as="targetPoint" />
          </mxGeometry>
        </mxCell>
        <mxCell id="VyCGf-THsZre0-RN0kSX-381" style="edgeStyle=orthogonalEdgeStyle;curved=1;rounded=0;orthogonalLoop=1;jettySize=auto;html=1;exitX=1;exitY=0.5;exitDx=0;exitDy=0;entryX=0.5;entryY=0;entryDx=0;entryDy=0;" parent="1" source="VyCGf-THsZre0-RN0kSX-330" target="VyCGf-THsZre0-RN0kSX-364" edge="1">
          <mxGeometry relative="1" as="geometry" />
        </mxCell>
        <mxCell id="VyCGf-THsZre0-RN0kSX-382" value="" style="endArrow=classic;startArrow=classic;html=1;rounded=0;entryX=1;entryY=0.5;entryDx=0;entryDy=0;exitX=0;exitY=0.5;exitDx=0;exitDy=0;" parent="1" source="VyCGf-THsZre0-RN0kSX-334" target="VyCGf-THsZre0-RN0kSX-317" edge="1">
          <mxGeometry width="50" height="50" relative="1" as="geometry">
            <mxPoint x="380" y="975" as="sourcePoint" />
            <mxPoint x="289" y="975" as="targetPoint" />
          </mxGeometry>
        </mxCell>
        <mxCell id="VyCGf-THsZre0-RN0kSX-383" value="Page8" style="swimlane;fontStyle=0;childLayout=stackLayout;horizontal=1;startSize=30;horizontalStack=0;resizeParent=1;resizeParentMax=0;resizeLast=0;collapsible=1;marginBottom=0;whiteSpace=wrap;html=1;" parent="1" vertex="1">
          <mxGeometry x="413" y="1050" width="100" height="310.84" as="geometry" />
        </mxCell>
        <mxCell id="VyCGf-THsZre0-RN0kSX-384" value="Node&amp;nbsp;Data" style="swimlane;whiteSpace=wrap;html=1;" parent="VyCGf-THsZre0-RN0kSX-383" vertex="1">
          <mxGeometry y="30" width="100" height="250.42" as="geometry" />
        </mxCell>
        <mxCell id="VyCGf-THsZre0-RN0kSX-385" value="Node Point" style="text;strokeColor=#9673a6;fillColor=#e1d5e7;align=center;verticalAlign=middle;spacingLeft=4;spacingRight=4;overflow=hidden;points=[[0,0.5],[1,0.5]];portConstraint=eastwest;rotatable=0;whiteSpace=wrap;html=1;fontStyle=1" parent="VyCGf-THsZre0-RN0kSX-383" vertex="1">
          <mxGeometry y="280.41999999999996" width="100" height="30.42" as="geometry" />
        </mxCell>
        <mxCell id="VyCGf-THsZre0-RN0kSX-386" value="" style="endArrow=classic;startArrow=classic;html=1;rounded=0;curved=1;entryX=0;entryY=0.5;entryDx=0;entryDy=0;exitX=1;exitY=0.5;exitDx=0;exitDy=0;" parent="1" source="VyCGf-THsZre0-RN0kSX-385" target="VyCGf-THsZre0-RN0kSX-343" edge="1">
          <mxGeometry width="50" height="50" relative="1" as="geometry">
            <mxPoint x="490" y="1320" as="sourcePoint" />
            <mxPoint x="430" y="1300" as="targetPoint" />
          </mxGeometry>
        </mxCell>
        <mxCell id="VyCGf-THsZre0-RN0kSX-387" value="Page5" style="swimlane;fontStyle=0;childLayout=stackLayout;horizontal=1;startSize=30;horizontalStack=0;resizeParent=1;resizeParentMax=0;resizeLast=0;collapsible=1;marginBottom=0;whiteSpace=wrap;html=1;" parent="1" vertex="1">
          <mxGeometry x="19" y="1050" width="100" height="310.84" as="geometry" />
        </mxCell>
        <mxCell id="VyCGf-THsZre0-RN0kSX-388" value="Node Data" style="swimlane;whiteSpace=wrap;html=1;" parent="VyCGf-THsZre0-RN0kSX-387" vertex="1">
          <mxGeometry y="30" width="100" height="250.42" as="geometry" />
        </mxCell>
        <mxCell id="VyCGf-THsZre0-RN0kSX-389" value="Node Point" style="text;strokeColor=#9673a6;fillColor=#e1d5e7;align=center;verticalAlign=middle;spacingLeft=4;spacingRight=4;overflow=hidden;points=[[0,0.5],[1,0.5]];portConstraint=eastwest;rotatable=0;whiteSpace=wrap;html=1;fontStyle=1" parent="VyCGf-THsZre0-RN0kSX-387" vertex="1">
          <mxGeometry y="280.41999999999996" width="100" height="30.42" as="geometry" />
        </mxCell>
        <mxCell id="VyCGf-THsZre0-RN0kSX-390" value="Page7" style="swimlane;fontStyle=0;childLayout=stackLayout;horizontal=1;startSize=30;horizontalStack=0;resizeParent=1;resizeParentMax=0;resizeLast=0;collapsible=1;marginBottom=0;whiteSpace=wrap;html=1;" parent="1" vertex="1">
          <mxGeometry x="230" y="1050" width="100" height="310.84" as="geometry" />
        </mxCell>
        <mxCell id="VyCGf-THsZre0-RN0kSX-391" value="Node&amp;nbsp;Data" style="swimlane;whiteSpace=wrap;html=1;startSize=23;" parent="VyCGf-THsZre0-RN0kSX-390" vertex="1">
          <mxGeometry y="30" width="100" height="250.42" as="geometry" />
        </mxCell>
        <mxCell id="VyCGf-THsZre0-RN0kSX-392" value="Node Point" style="text;strokeColor=#9673a6;fillColor=#e1d5e7;align=center;verticalAlign=middle;spacingLeft=4;spacingRight=4;overflow=hidden;points=[[0,0.5],[1,0.5]];portConstraint=eastwest;rotatable=0;whiteSpace=wrap;html=1;fontStyle=1" parent="VyCGf-THsZre0-RN0kSX-390" vertex="1">
          <mxGeometry y="280.41999999999996" width="100" height="30.42" as="geometry" />
        </mxCell>
        <mxCell id="VyCGf-THsZre0-RN0kSX-393" value="&lt;span&gt;······&lt;/span&gt;" style="text;html=1;align=center;verticalAlign=middle;whiteSpace=wrap;rounded=0;fontStyle=1" parent="1" vertex="1">
          <mxGeometry x="130" y="1330.42" width="40" height="31" as="geometry" />
        </mxCell>
        <mxCell id="VyCGf-THsZre0-RN0kSX-394" value="" style="endArrow=classic;startArrow=classic;html=1;rounded=0;curved=1;entryX=0;entryY=0.5;entryDx=0;entryDy=0;exitX=1;exitY=0.5;exitDx=0;exitDy=0;" parent="1" source="VyCGf-THsZre0-RN0kSX-389" target="VyCGf-THsZre0-RN0kSX-393" edge="1">
          <mxGeometry width="50" height="50" relative="1" as="geometry">
            <mxPoint x="100" y="1406.16" as="sourcePoint" />
            <mxPoint x="-90" y="1210.16" as="targetPoint" />
          </mxGeometry>
        </mxCell>
        <mxCell id="VyCGf-THsZre0-RN0kSX-395" value="" style="endArrow=classic;startArrow=classic;html=1;rounded=0;curved=1;entryX=0;entryY=0.5;entryDx=0;entryDy=0;exitX=0.897;exitY=0.502;exitDx=0;exitDy=0;exitPerimeter=0;" parent="1" source="VyCGf-THsZre0-RN0kSX-393" target="VyCGf-THsZre0-RN0kSX-392" edge="1">
          <mxGeometry width="50" height="50" relative="1" as="geometry">
            <mxPoint x="210" y="1440.8200000000002" as="sourcePoint" />
            <mxPoint x="220" y="1406.16" as="targetPoint" />
          </mxGeometry>
        </mxCell>
        <mxCell id="VyCGf-THsZre0-RN0kSX-396" style="edgeStyle=orthogonalEdgeStyle;curved=1;rounded=0;orthogonalLoop=1;jettySize=auto;html=1;exitX=0;exitY=0.5;exitDx=0;exitDy=0;entryX=0;entryY=0;entryDx=0;entryDy=0;" parent="1" source="VyCGf-THsZre0-RN0kSX-290" target="VyCGf-THsZre0-RN0kSX-387" edge="1">
          <mxGeometry relative="1" as="geometry" />
        </mxCell>
        <mxCell id="VyCGf-THsZre0-RN0kSX-399" style="edgeStyle=orthogonalEdgeStyle;curved=1;rounded=0;orthogonalLoop=1;jettySize=auto;html=1;exitX=1;exitY=0.5;exitDx=0;exitDy=0;entryX=1;entryY=0;entryDx=0;entryDy=0;" parent="1" source="VyCGf-THsZre0-RN0kSX-294" target="VyCGf-THsZre0-RN0kSX-390" edge="1">
          <mxGeometry relative="1" as="geometry" />
        </mxCell>
        <mxCell id="VyCGf-THsZre0-RN0kSX-400" value="" style="endArrow=classic;startArrow=classic;html=1;rounded=0;curved=1;exitX=1;exitY=0.5;exitDx=0;exitDy=0;entryX=0;entryY=0.5;entryDx=0;entryDy=0;" parent="1" source="VyCGf-THsZre0-RN0kSX-392" target="VyCGf-THsZre0-RN0kSX-385" edge="1">
          <mxGeometry width="50" height="50" relative="1" as="geometry">
            <mxPoint x="523" y="1356" as="sourcePoint" />
            <mxPoint x="380" y="1380" as="targetPoint" />
          </mxGeometry>
        </mxCell>
        <mxCell id="NcQXsjjy6JG6pCiX0xN8-1" value="Text" style="text;html=1;align=center;verticalAlign=middle;whiteSpace=wrap;rounded=0;" vertex="1" parent="1">
          <mxGeometry x="620" y="200" width="60" height="30" as="geometry" />
        </mxCell>
        <mxCell id="NcQXsjjy6JG6pCiX0xN8-2" value="&lt;h1 style=&quot;margin-top: 0px;&quot;&gt;B Tree&lt;/h1&gt;&lt;p&gt;&lt;br&gt;&lt;/p&gt;" style="text;html=1;whiteSpace=wrap;overflow=hidden;rounded=0;" vertex="1" parent="1">
          <mxGeometry x="1020" y="10" width="80" height="40" as="geometry" />
        </mxCell>
        <mxCell id="NcQXsjjy6JG6pCiX0xN8-3" value="&lt;h1 style=&quot;margin-top: 0px;&quot;&gt;B+ Tree&lt;/h1&gt;&lt;p&gt;&lt;br&gt;&lt;/p&gt;" style="text;html=1;whiteSpace=wrap;overflow=hidden;rounded=0;" vertex="1" parent="1">
          <mxGeometry x="60" y="570" width="110" height="40" as="geometry" />
        </mxCell>
      </root>
    </mxGraphModel>
  </diagram>
</mxfile>
